<!DOCTYPE svg PUBLIC "-//W3C//DTD SVG 20010904//EN" "http://www.w3.org/TR/2001/REC-SVG-20010904/DTD/svg10.dtd">
<svg version="1.0" xmlns="http://www.w3.org/2000/svg" width="235px" height="210px" viewBox="0 0 2350 2100" preserveAspectRatio="xMidYMid meet">
<g id="layer1" fill="#3e3e3e" stroke="none">
 <path d="M800 2025 c0 -20 -5 -25 -25 -25 -20 0 -25 -5 -25 -25 0 -23 -3 -25 -50 -25 -47 0 -50 -2 -50 -25 0 -23 -3 -25 -50 -25 -47 0 -50 -2 -50 -25 0 -20 -5 -25 -25 -25 -20 0 -25 -5 -25 -25 0 -20 -5 -25 -25 -25 l-25 0 0 -225 0 -225 25 0 c23 0 25 -3 25 -50 0 -47 2 -50 25 -50 20 0 25 -5 25 -25 0 -20 5 -25 25 -25 23 0 25 -3 25 -50 0 -47 2 -50 25 -50 20 0 25 -5 25 -25 0 -24 2 -25 75 -25 73 0 75 -1 75 -25 0 -23 3 -25 50 -25 47 0 50 2 50 25 0 24 2 25 75 25 l75 0 0 -50 c0 -47 2 -50 25 -50 23 0 25 -3 25 -50 0 -47 2 -50 25 -50 20 0 25 -5 25 -25 0 -20 -5 -25 -25 -25 -20 0 -25 -5 -25 -25 0 -23 -3 -25 -50 -25 -47 0 -50 -2 -50 -25 0 -23 -3 -25 -50 -25 -47 0 -50 -2 -50 -25 0 -20 -5 -25 -25 -25 -24 0 -25 -2 -25 -75 0 -73 -1 -75 -25 -75 -24 0 -25 -2 -25 -75 l0 -75 75 0 c73 0 75 -1 75 -25 0 -20 -5 -25 -25 -25 -24 0 -25 -2 -25 -75 l0 -75 50 0 c47 0 50 2 50 25 0 20 5 25 25 25 23 0 25 -3 25 -50 0 -47 2 -50 25 -50 20 0 25 -5 25 -25 0 -20 5 -25 25 -25 20 0 25 5 25 25 0 20 5 25 25 25 20 0 25 5 25 25 0 20 5 25 25 25 20 0 25 5 25 25 0 20 5 25 25 25 20 0 25 5 25 25 0 23 3 25 50 25 47 0 50 2 50 25 0 20 5 25 25 25 20 0 25 5 25 25 0 23 3 25 50 25 47 0 50 2 50 25 0 23 3 25 50 25 l50 0 0 -50 c0 -47 2 -50 25 -50 23 0 25 -3 25 -50 l0 -50 50 0 c47 0 50 -2 50 -25 0 -20 5 -25 25 -25 20 0 25 5 25 25 0 20 5 25 25 25 23 0 25 3 25 50 0 47 -2 50 -25 50 -24 0 -25 2 -25 75 0 73 -1 75 -25 75 -23 0 -25 3 -25 50 0 47 2 50 25 50 20 0 25 5 25 25 0 20 5 25 25 25 20 0 25 -5 25 -25 l0 -25 100 0 100 0 0 -25 c0 -23 3 -25 50 -25 47 0 50 2 50 25 0 20 -5 25 -25 25 -20 0 -25 5 -25 25 0 24 -2 25 -75 25 -73 0 -75 1 -75 25 0 24 -2 25 -75 25 -73 0 -75 1 -75 25 0 20 -5 25 -25 25 -24 0 -25 2 -25 75 0 73 -1 75 -25 75 -20 0 -25 5 -25 25 l0 25 175 0 175 0 0 -25 c0 -23 3 -25 50 -25 l50 0 0 50 0 50 -100 0 -100 0 0 25 0 25 -300 0 -300 0 0 -25 c0 -23 -3 -25 -50 -25 -47 0 -50 -2 -50 -25 0 -24 -2 -25 -75 -25 -73 0 -75 1 -75 25 0 20 -5 25 -25 25 -25 0 -25 1 -25 80 0 73 2 80 20 80 13 0 20 7 20 20 0 18 7 20 55 20 52 0 55 1 55 25 0 20 5 25 25 25 20 0 25 5 25 25 0 20 5 25 25 25 20 0 25 5 25 25 0 20 5 25 25 25 l25 0 0 200 0 200 -25 0 c-23 0 -25 3 -25 50 0 47 -2 50 -25 50 -23 0 -25 3 -25 50 0 47 -2 50 -25 50 -20 0 -25 5 -25 25 0 20 -5 25 -25 25 -20 0 -25 5 -25 25 0 20 -5 25 -25 25 -20 0 -25 5 -25 25 l0 25 -175 0 -175 0 0 -25z m350 -100 c0 -20 5 -25 25 -25 20 0 25 -5 25 -25 0 -20 5 -25 25 -25 23 0 25 -3 25 -50 0 -47 2 -50 25 -50 23 0 25 -3 25 -50 0 -47 2 -50 25 -50 l25 0 0 -125 0 -125 -25 0 c-20 0 -25 -5 -25 -25 0 -20 -5 -25 -25 -25 -20 0 -25 -5 -25 -25 0 -23 -3 -25 -50 -25 -47 0 -50 2 -50 25 0 23 -3 25 -50 25 -47 0 -50 -2 -50 -25 0 -20 5 -25 25 -25 20 0 25 -5 25 -25 0 -20 5 -25 25 -25 20 0 25 -5 25 -25 0 -24 -2 -25 -75 -25 -73 0 -75 1 -75 25 0 23 -3 25 -50 25 -47 0 -50 2 -50 25 0 20 -5 25 -25 25 -23 0 -25 3 -25 50 0 47 -2 50 -25 50 -24 0 -25 2 -25 75 0 73 -1 75 -25 75 l-25 0 0 150 0 150 25 0 c20 0 25 5 25 25 0 20 5 25 25 25 l25 0 0 -150 0 -150 25 0 c20 0 25 -5 25 -25 0 -20 5 -25 25 -25 23 0 25 3 25 50 0 47 -2 50 -25 50 -24 0 -25 2 -25 75 0 73 1 75 25 75 24 0 25 2 25 75 l0 75 100 0 100 0 0 -25z m-500 -239 c0 -141 6 -176 31 -176 16 0 19 -8 19 -55 0 -52 1 -55 25 -55 23 0 25 -3 25 -50 0 -47 2 -50 25 -50 20 0 25 -5 25 -25 0 -20 5 -25 25 -25 20 0 25 -5 25 -25 0 -20 5 -25 25 -25 23 0 25 -3 25 -50 l0 -50 -55 0 c-48 0 -55 3 -55 19 0 16 -9 21 -45 27 -39 5 -45 10 -45 30 0 19 -5 24 -25 24 -20 0 -25 5 -25 25 0 20 -5 25 -25 25 -23 0 -25 3 -25 50 0 47 -2 50 -25 50 l-25 0 0 100 0 100 -25 0 c-21 0 -25 5 -25 30 0 23 5 30 19 30 17 0 20 11 26 95 l7 95 49 0 49 0 0 -114z m950 -836 l0 -50 50 0 c47 0 50 -2 50 -25 0 -20 5 -25 25 -25 l25 0 0 -150 0 -150 25 0 25 0 0 -100 0 -100 -25 0 c-23 0 -25 3 -25 50 0 47 -2 50 -25 50 -23 0 -25 3 -25 50 0 47 -2 50 -25 50 -20 0 -25 5 -25 25 0 20 -5 25 -25 25 -20 0 -25 5 -25 25 0 20 -5 25 -25 25 l-25 0 0 125 0 125 -25 0 c-20 0 -25 -5 -25 -25 0 -23 -3 -25 -50 -25 l-50 0 0 -50 c0 -47 2 -50 25 -50 23 0 25 -3 25 -50 0 -47 2 -50 25 -50 20 0 25 -5 25 -25 0 -20 5 -25 25 -25 20 0 25 -5 25 -24 0 -20 -6 -25 -45 -30 -36 -6 -45 -11 -45 -27 0 -14 -7 -19 -30 -19 -25 0 -30 -4 -30 -25 0 -20 -5 -25 -25 -25 -20 0 -25 -5 -25 -25 0 -23 -3 -25 -50 -25 l-50 0 0 -50 c0 -47 -2 -50 -25 -50 -20 0 -25 -5 -25 -25 0 -20 -5 -25 -25 -25 -23 0 -25 3 -25 50 0 47 2 50 25 50 20 0 25 5 25 25 0 20 5 25 25 25 23 0 25 3 25 50 l0 50 -50 0 c-47 0 -50 -2 -50 -25 0 -20 -5 -25 -25 -25 -20 0 -25 -5 -25 -25 0 -20 -5 -25 -25 -25 -20 0 -25 -5 -25 -25 0 -23 -3 -25 -50 -25 -47 0 -50 2 -50 25 0 20 5 25 25 25 20 0 25 5 25 25 0 20 5 25 25 25 20 0 25 5 25 25 0 20 5 25 25 25 20 0 25 5 25 25 0 24 -2 25 -75 25 -73 0 -75 -1 -75 -25 0 -20 -5 -25 -25 -25 -23 0 -25 3 -25 50 0 47 2 50 25 50 20 0 25 5 25 25 0 23 3 25 50 25 47 0 50 2 50 25 0 23 -3 25 -50 25 -47 0 -50 2 -50 25 0 23 3 25 50 25 47 0 50 2 50 25 0 20 5 25 25 25 20 0 25 5 25 25 0 23 3 25 50 25 l50 0 0 -50 0 -50 -50 0 c-47 0 -50 -2 -50 -25 0 -23 3 -25 50 -25 47 0 50 -2 50 -25 0 -20 -5 -25 -25 -25 -20 0 -25 -5 -25 -25 0 -20 -5 -25 -25 -25 -20 0 -25 -5 -25 -25 0 -23 3 -25 50 -25 47 0 50 2 50 25 0 23 3 25 50 25 47 0 50 -2 50 -25 0 -20 -5 -25 -25 -25 -20 0 -25 -5 -25 -25 0 -27 8 -29 59 -19 21 5 31 12 31 25 0 14 7 19 30 19 25 0 30 4 30 25 0 20 -5 25 -25 25 -20 0 -25 5 -25 25 0 20 -5 25 -25 25 -23 0 -25 3 -25 50 0 47 -2 50 -25 50 -24 0 -25 2 -25 75 0 73 1 75 25 75 20 0 25 5 25 25 0 20 5 25 25 25 20 0 25 5 25 25 l0 25 125 0 125 0 0 -50z"/>
 <path d="M1400 1875 c0 -20 5 -25 25 -25 23 0 25 -3 25 -50 0 -47 2 -50 25 -50 23 0 25 -3 25 -50 0 -47 2 -50 25 -50 24 0 25 -2 25 -75 0 -73 -1 -75 -25 -75 -20 0 -25 -5 -25 -25 0 -23 3 -25 50 -25 l50 0 0 150 0 150 -25 0 c-23 0 -25 3 -25 50 0 47 -2 50 -25 50 -20 0 -25 5 -25 25 0 23 -3 25 -50 25 -47 0 -50 -2 -50 -25z"/>
 <path d="M1600 1875 c0 -20 5 -25 25 -25 23 0 25 -3 25 -50 0 -47 2 -50 25 -50 23 0 25 -3 25 -50 0 -47 2 -50 25 -50 24 0 25 2 25 75 0 73 -1 75 -25 75 -23 0 -25 3 -25 50 l0 50 -50 0 c-47 0 -50 -2 -50 -25z"/>
 <path d="M300 1175 c0 -73 1 -75 25 -75 20 0 25 -5 25 -25 0 -20 5 -25 25 -25 20 0 25 -5 25 -25 0 -20 5 -25 25 -25 20 0 25 -5 25 -25 0 -20 5 -25 25 -25 20 0 25 -5 25 -25 0 -23 3 -25 50 -25 47 0 50 2 50 25 0 20 -5 25 -25 25 -20 0 -25 5 -25 25 0 20 -5 25 -25 25 -20 0 -25 5 -25 25 0 20 -5 25 -25 25 -20 0 -25 5 -25 25 0 20 -5 25 -25 25 -23 0 -25 3 -25 50 0 47 -2 50 -25 50 -20 0 -25 5 -25 25 0 20 -5 25 -25 25 -24 0 -25 -2 -25 -75z"/>
 <path d="M250 1000 c0 -47 2 -50 25 -50 23 0 25 -3 25 -50 l0 -50 50 0 c47 0 50 -2 50 -25 0 -20 5 -25 25 -25 23 0 25 3 25 50 0 47 -2 50 -25 50 -20 0 -25 5 -25 25 0 20 -5 25 -25 25 -20 0 -25 5 -25 25 0 20 -5 25 -25 25 -20 0 -25 5 -25 25 0 20 -5 25 -25 25 -23 0 -25 -3 -25 -50z"/>
 </g>
<g id="layer2" fill="#fefefe" stroke="none">
 <path d="M0 1050 l0 -1050 1175 0 1175 0 0 1050 0 1050 -1175 0 -1175 0 0 -1050z m1150 975 c0 -20 5 -25 25 -25 20 0 25 -5 25 -25 0 -20 5 -25 25 -25 20 0 25 -5 25 -25 0 -20 5 -25 25 -25 23 0 25 -3 25 -50 0 -47 2 -50 25 -50 23 0 25 -3 25 -50 0 -47 2 -50 25 -50 l25 0 0 -200 0 -200 -25 0 c-20 0 -25 -5 -25 -25 0 -20 -5 -25 -25 -25 -20 0 -25 -5 -25 -25 0 -20 -5 -25 -25 -25 -20 0 -25 -5 -25 -25 0 -24 -3 -25 -55 -25 -48 0 -55 -2 -55 -20 0 -13 -7 -20 -20 -20 -18 0 -20 -7 -20 -80 0 -79 0 -80 25 -80 20 0 25 -5 25 -25 0 -24 2 -25 75 -25 73 0 75 1 75 25 0 23 3 25 50 25 47 0 50 2 50 25 l0 25 300 0 300 0 0 -25 0 -25 100 0 100 0 0 -50 0 -50 -50 0 c-47 0 -50 2 -50 25 l0 25 -175 0 -175 0 0 -25 c0 -20 5 -25 25 -25 24 0 25 -2 25 -75 0 -73 1 -75 25 -75 20 0 25 -5 25 -25 0 -24 2 -25 75 -25 73 0 75 -1 75 -25 0 -24 2 -25 75 -25 73 0 75 -1 75 -25 0 -20 5 -25 25 -25 20 0 25 -5 25 -25 0 -23 -3 -25 -50 -25 -47 0 -50 2 -50 25 l0 25 -100 0 -100 0 0 25 c0 20 -5 25 -25 25 -20 0 -25 -5 -25 -25 0 -20 -5 -25 -25 -25 -23 0 -25 -3 -25 -50 0 -47 2 -50 25 -50 24 0 25 -2 25 -75 0 -73 1 -75 25 -75 23 0 25 -3 25 -50 0 -47 -2 -50 -25 -50 -20 0 -25 -5 -25 -25 0 -20 -5 -25 -25 -25 -20 0 -25 5 -25 25 0 23 -3 25 -50 25 l-50 0 0 50 c0 47 -2 50 -25 50 -23 0 -25 3 -25 50 l0 50 -50 0 c-47 0 -50 -2 -50 -25 0 -23 -3 -25 -50 -25 -47 0 -50 -2 -50 -25 0 -20 -5 -25 -25 -25 -20 0 -25 -5 -25 -25 0 -23 -3 -25 -50 -25 -47 0 -50 -2 -50 -25 0 -20 -5 -25 -25 -25 -20 0 -25 -5 -25 -25 0 -20 -5 -25 -25 -25 -20 0 -25 -5 -25 -25 0 -20 -5 -25 -25 -25 -20 0 -25 -5 -25 -25 0 -20 -5 -25 -25 -25 -20 0 -25 5 -25 25 0 20 -5 25 -25 25 -23 0 -25 3 -25 50 0 47 -2 50 -25 50 -20 0 -25 -5 -25 -25 0 -23 -3 -25 -50 -25 l-50 0 0 75 c0 73 1 75 25 75 20 0 25 5 25 25 0 24 -2 25 -75 25 l-75 0 0 75 c0 73 1 75 25 75 24 0 25 2 25 75 0 73 1 75 25 75 20 0 25 5 25 25 0 23 3 25 50 25 47 0 50 2 50 25 0 23 3 25 50 25 47 0 50 2 50 25 0 20 5 25 25 25 20 0 25 5 25 25 0 20 -5 25 -25 25 -23 0 -25 3 -25 50 0 47 -2 50 -25 50 -23 0 -25 3 -25 50 l0 50 -75 0 c-73 0 -75 -1 -75 -25 0 -23 -3 -25 -50 -25 -47 0 -50 2 -50 25 0 24 -2 25 -75 25 -73 0 -75 1 -75 25 0 20 -5 25 -25 25 -23 0 -25 3 -25 50 0 47 -2 50 -25 50 -20 0 -25 5 -25 25 0 20 -5 25 -25 25 -23 0 -25 3 -25 50 0 47 -2 50 -25 50 l-25 0 0 225 0 225 25 0 c20 0 25 5 25 25 0 20 5 25 25 25 20 0 25 5 25 25 0 23 3 25 50 25 47 0 50 2 50 25 0 23 3 25 50 25 47 0 50 2 50 25 0 20 5 25 25 25 20 0 25 5 25 25 l0 25 175 0 175 0 0 -25z m350 -150 c0 -20 5 -25 25 -25 23 0 25 -3 25 -50 0 -47 2 -50 25 -50 l25 0 0 -150 0 -150 -50 0 c-47 0 -50 2 -50 25 0 20 5 25 25 25 24 0 25 2 25 75 0 73 -1 75 -25 75 -23 0 -25 3 -25 50 0 47 -2 50 -25 50 -23 0 -25 3 -25 50 0 47 -2 50 -25 50 -20 0 -25 5 -25 25 0 23 3 25 50 25 47 0 50 -2 50 -25z m200 -25 c0 -47 2 -50 25 -50 24 0 25 -2 25 -75 0 -73 -1 -75 -25 -75 -23 0 -25 3 -25 50 0 47 -2 50 -25 50 -23 0 -25 3 -25 50 0 47 -2 50 -25 50 -20 0 -25 5 -25 25 0 23 3 25 50 25 l50 0 0 -50z m-1350 -625 c0 -20 5 -25 25 -25 23 0 25 -3 25 -50 0 -47 2 -50 25 -50 20 0 25 -5 25 -25 0 -20 5 -25 25 -25 20 0 25 -5 25 -25 0 -20 5 -25 25 -25 20 0 25 -5 25 -25 0 -20 5 -25 25 -25 20 0 25 -5 25 -25 0 -23 -3 -25 -50 -25 -47 0 -50 2 -50 25 0 20 -5 25 -25 25 -20 0 -25 5 -25 25 0 20 -5 25 -25 25 -20 0 -25 5 -25 25 0 20 -5 25 -25 25 -20 0 -25 5 -25 25 0 20 -5 25 -25 25 -24 0 -25 2 -25 75 0 73 1 75 25 75 20 0 25 -5 25 -25z m-50 -200 c0 -20 5 -25 25 -25 20 0 25 -5 25 -25 0 -20 5 -25 25 -25 20 0 25 -5 25 -25 0 -20 5 -25 25 -25 23 0 25 -3 25 -50 0 -47 -2 -50 -25 -50 -20 0 -25 5 -25 25 0 23 -3 25 -50 25 l-50 0 0 50 c0 47 -2 50 -25 50 -23 0 -25 3 -25 50 0 47 2 50 25 50 20 0 25 -5 25 -25z"/>
 <path d="M950 1875 c0 -73 -1 -75 -25 -75 -24 0 -25 -2 -25 -75 0 -73 1 -75 25 -75 23 0 25 -3 25 -50 0 -47 -2 -50 -25 -50 -20 0 -25 5 -25 25 0 20 -5 25 -25 25 l-25 0 0 150 0 150 -25 0 c-20 0 -25 -5 -25 -25 0 -20 -5 -25 -25 -25 l-25 0 0 -150 0 -150 25 0 c24 0 25 -2 25 -75 0 -73 1 -75 25 -75 23 0 25 -3 25 -50 0 -47 2 -50 25 -50 20 0 25 -5 25 -25 0 -23 3 -25 50 -25 47 0 50 -2 50 -25 0 -24 2 -25 75 -25 73 0 75 1 75 25 0 20 -5 25 -25 25 -20 0 -25 5 -25 25 0 20 -5 25 -25 25 -20 0 -25 5 -25 25 0 23 3 25 50 25 47 0 50 -2 50 -25 0 -23 3 -25 50 -25 47 0 50 2 50 25 0 20 5 25 25 25 20 0 25 5 25 25 0 20 5 25 25 25 l25 0 0 125 0 125 -25 0 c-23 0 -25 3 -25 50 0 47 -2 50 -25 50 -23 0 -25 3 -25 50 0 47 -2 50 -25 50 -20 0 -25 5 -25 25 0 20 -5 25 -25 25 -20 0 -25 5 -25 25 l0 25 -100 0 -100 0 0 -75z"/>
 <path d="M545 1705 c-6 -84 -9 -95 -26 -95 -14 0 -19 -7 -19 -30 0 -25 4 -30 25 -30 l25 0 0 -100 0 -100 25 0 c23 0 25 -3 25 -50 0 -47 2 -50 25 -50 20 0 25 -5 25 -25 0 -20 5 -25 25 -25 20 0 25 -5 25 -24 0 -20 6 -25 45 -30 36 -6 45 -11 45 -27 0 -16 7 -19 55 -19 l55 0 0 50 c0 47 -2 50 -25 50 -20 0 -25 5 -25 25 0 20 -5 25 -25 25 -20 0 -25 5 -25 25 0 20 -5 25 -25 25 -23 0 -25 3 -25 50 0 47 -2 50 -25 50 -24 0 -25 3 -25 55 0 47 -3 55 -19 55 -25 0 -31 35 -31 176 l0 114 -49 0 -49 0 -7 -95z"/>
 <path d="M1350 875 c0 -20 -5 -25 -25 -25 -20 0 -25 -5 -25 -25 0 -20 -5 -25 -25 -25 -24 0 -25 -2 -25 -75 0 -73 1 -75 25 -75 23 0 25 -3 25 -50 0 -47 2 -50 25 -50 20 0 25 -5 25 -25 0 -20 5 -25 25 -25 20 0 25 -5 25 -25 0 -21 -5 -25 -30 -25 -23 0 -30 -5 -30 -19 0 -13 -10 -20 -31 -25 -51 -10 -59 -8 -59 19 0 20 5 25 25 25 20 0 25 5 25 25 0 23 -3 25 -50 25 -47 0 -50 -2 -50 -25 0 -23 -3 -25 -50 -25 -47 0 -50 2 -50 25 0 20 5 25 25 25 20 0 25 5 25 25 0 20 5 25 25 25 20 0 25 5 25 25 0 23 -3 25 -50 25 -47 0 -50 2 -50 25 0 23 3 25 50 25 l50 0 0 50 0 50 -50 0 c-47 0 -50 -2 -50 -25 0 -20 -5 -25 -25 -25 -20 0 -25 -5 -25 -25 0 -23 -3 -25 -50 -25 -47 0 -50 -2 -50 -25 0 -23 3 -25 50 -25 47 0 50 -2 50 -25 0 -23 -3 -25 -50 -25 -47 0 -50 -2 -50 -25 0 -20 -5 -25 -25 -25 -23 0 -25 -3 -25 -50 0 -47 2 -50 25 -50 20 0 25 5 25 25 0 24 2 25 75 25 73 0 75 -1 75 -25 0 -20 -5 -25 -25 -25 -20 0 -25 -5 -25 -25 0 -20 -5 -25 -25 -25 -20 0 -25 -5 -25 -25 0 -20 -5 -25 -25 -25 -20 0 -25 -5 -25 -25 0 -23 3 -25 50 -25 47 0 50 2 50 25 0 20 5 25 25 25 20 0 25 5 25 25 0 20 5 25 25 25 20 0 25 5 25 25 0 23 3 25 50 25 l50 0 0 -50 c0 -47 -2 -50 -25 -50 -20 0 -25 -5 -25 -25 0 -20 -5 -25 -25 -25 -23 0 -25 -3 -25 -50 0 -47 2 -50 25 -50 20 0 25 5 25 25 0 20 5 25 25 25 23 0 25 3 25 50 l0 50 50 0 c47 0 50 2 50 25 0 20 5 25 25 25 20 0 25 5 25 25 0 21 5 25 30 25 23 0 30 5 30 19 0 16 9 21 45 27 39 5 45 10 45 30 0 19 -5 24 -25 24 -20 0 -25 5 -25 25 0 20 -5 25 -25 25 -23 0 -25 3 -25 50 0 47 -2 50 -25 50 -23 0 -25 3 -25 50 l0 50 50 0 c47 0 50 2 50 25 0 20 5 25 25 25 l25 0 0 -125 0 -125 25 0 c20 0 25 -5 25 -25 0 -20 5 -25 25 -25 20 0 25 -5 25 -25 0 -20 5 -25 25 -25 23 0 25 -3 25 -50 0 -47 2 -50 25 -50 23 0 25 -3 25 -50 0 -47 2 -50 25 -50 l25 0 0 100 0 100 -25 0 -25 0 0 150 0 150 -25 0 c-20 0 -25 5 -25 25 0 23 -3 25 -50 25 l-50 0 0 50 0 50 -125 0 -125 0 0 -25z"/>
 </g>

</svg>